<?xml version="1.0" encoding="utf-8"?>
<!-- Generator: Adobe Illustrator 23.1.0, SVG Export Plug-In . SVG Version: 6.00 Build 0)  -->
<svg version="1.1" xmlns="http://www.w3.org/2000/svg" xmlns:xlink="http://www.w3.org/1999/xlink" x="0px" y="0px"
	 viewBox="0 0 3000 3000" style="enable-background:new 0 0 3000 3000;" xml:space="preserve">
<style type="text/css">
	.st0{display:none;}
	.st1{fill:#137FE2;stroke:#000000;stroke-width:24;stroke-miterlimit:10;}
	.st2{fill:#1538FD;stroke:#000000;stroke-width:8;stroke-miterlimit:10;}
	.st3{font-family:'RubikMonoOne-Regular';}
	.st4{font-size:378.9472px;}
	.st5{font-size:274.7367px;}
	.st6{display:inline;}
	.st7{fill:none;stroke:#000000;stroke-width:2;stroke-miterlimit:10;}
	.st8{fill:none;stroke:#000000;stroke-miterlimit:10;}
</style>
<g id="Orig_photo" class="st0">
	
		<image style="display:inline;overflow:visible;enable-background:new    ;" width="609" height="608" xlink:href="354BBB7B.jpeg"  transform="matrix(1 0 0 1 1196 1196)">
	</image>
</g>
<g id="Gear_wheel">
	<path class="st1" d="M2905.1,1814c22.5-101.1,34.4-206.1,34.4-314s-11.8-212.9-34.4-314h-281.3c-25.4-91.3-61.7-178.2-107.3-259
		l198.9-198.9c-56.8-89.3-123.2-171.9-197.6-246.4c-74.5-74.5-157.1-140.8-246.4-197.6L2072.5,483c-80.8-45.7-167.6-81.9-259-107.3
		V94.4c-101.1-22.5-206.1-34.4-314-34.4s-212.9,11.8-314,34.4v281.3c-91.3,25.4-178.2,61.7-259,107.3L727.7,284.1
		c-89.3,56.8-171.9,123.2-246.4,197.6c-74.5,74.5-140.8,157.1-197.6,246.4L482.5,927c-45.7,80.8-81.9,167.6-107.3,259H93.9
		c-22.5,101.1-34.4,206.1-34.4,314s11.8,212.9,34.4,314h281.3c25.4,91.3,61.7,178.2,107.3,259l-198.9,198.9
		c56.8,89.3,123.2,171.9,197.6,246.4c74.5,74.5,157.1,140.8,246.4,197.6L926.5,2517c80.8,45.7,167.6,81.9,259,107.3v281.3
		c101.1,22.5,206.1,34.4,314,34.4s212.9-11.8,314-34.4v-281.3c91.3-25.4,178.2-61.7,259-107.3l198.9,198.9
		c89.3-56.8,171.9-123.2,246.4-197.6c74.5-74.5,140.8-157.1,197.6-246.4L2516.5,2073c45.7-80.8,81.9-167.6,107.3-259H2905.1z
		 M2097.7,1814c-63.7,121.1-163.1,220.5-284.2,284.2c-35.9,18.9-73.7,34.6-113,46.8c-63.5,19.8-131,30.4-201,30.4
		s-137.5-10.7-201-30.4c-39.4-12.2-77.1-28-113-46.8c-121.1-63.7-220.5-163.1-284.2-284.2c-18.9-35.9-34.6-73.7-46.8-113
		c-19.8-63.5-30.4-131-30.4-201s10.7-137.5,30.4-201c12.2-39.4,28-77.1,46.8-113c63.7-121.1,163.1-220.5,284.2-284.2
		c35.9-18.9,73.7-34.6,113-46.8c63.5-19.8,131-30.4,201-30.4s137.5,10.7,201,30.4c39.4,12.2,77.1,28,113,46.8
		c121.1,63.7,220.5,163.1,284.2,284.2c18.9,35.9,34.6,73.7,46.8,113c19.8,63.5,30.4,131,30.4,201s-10.7,137.5-30.4,201
		C2132.3,1740.3,2116.5,1778.1,2097.7,1814z"/>
</g>
<g id="Text">
	<g>
		<text transform="matrix(0.9804 0 0 1 1028.2183 1499.998)" class="st2 st3 st4">ЗПТ</text>
	</g>
	<text transform="matrix(1.0142 0 0 1 1028.2183 1784.207)" class="st2 st3 st5">1981</text>
</g>
<g id="Book" class="st0">
	<g class="st6">
		<g id="Слой_3">
			<polygon class="st7" points="1259.3,1701.7 1211.1,1702.2 1323.3,1525.9 1340,1526 1287.9,1614.1 1258.9,1669.8 			"/>
			<polygon class="st7" points="1668,1526.1 1682,1526.1 1792.8,1702 1751,1702 1751,1665.3 1668,1530 			"/>
			<path class="st7" d="M1672.9,1539l-16,0.1l0.1,7.3l69.3,120.4c-103.3,5.6-143.1,30-174.5,56.4c-9.4,7.9-32,37.8-32,55.8"/>
			<line class="st7" x1="1510.7" y1="1727.7" x2="1514.6" y2="1723.3"/>
			<path class="st7" d="M1514.6,1723.3c17.1-16.1,35.5-30.8,55.2-43.6c20.6-13.3,42.5-24.4,65.6-32.6c13.7-4.9,27.7-8.7,41.9-11.5
				l-63.4-141.2c-16.9,9.6-32.9,18.6-48.9,30.6c-19,15-37,29-52,47C1516,1622,1512,1673,1514.6,1723.3l-3.9,4.3l-1.8-165.6l-1,1
				c33.1-34,71.1-64,112-87.2c-4.6,2.8-9.3,5.4-13.9,8.1c4.6-2.7,9.3-5.4,13.9-8.1c23.1,51.2,46.1,103.2,69,154.6l-11.7,5.3"/>
		</g>
		<line class="st7" x1="1342.7" y1="1538.9" x2="1258.9" y2="1669.8"/>
		<line class="st7" x1="1287.7" y1="1666.9" x2="1360.3" y2="1539.1"/>
		<line class="st7" x1="1342.7" y1="1538.9" x2="1360.3" y2="1539.1"/>
		<line class="st7" x1="1326.3" y1="1633.1" x2="1310.1" y2="1627.6"/>
		<path class="st8" d="M1379.6,1482.6c-9.5,19.1-20.6,37.3-30.1,56.4"/>
		<path class="st8" d="M1379.7,1482.6c10.3,3.7,20.4,8,30.2,12.9c17.4,8.6,33.9,19,49.2,31c7.6,5.9,14.8,12.3,21.7,19
			c3.4,3.4,6.8,6.8,10,10.3c3.5,3.8,5.5,5.9,5.6,11.1c-3.9-0.6-6.2-4.4-8.6-7c-3.3-3.6-6.9-6.9-10.5-10.2c-24-22-52.2-39.7-83-50.3
			l-0.5,0.5C1383,1522,1372,1544,1360,1566c-4,7-6,15-10,22c-10,15-15,31-23.7,45.1"/>
	</g>
</g>
</svg>
